<mxfile host="app.diagrams.net" modified="2021-04-10T19:28:31.011Z" agent="5.0 (Windows NT 10.0; Win64; x64) AppleWebKit/537.36 (KHTML, like Gecko) Chrome/89.0.4389.114 Safari/537.36" etag="sH_KFocGXy4IYbrCGsp_" version="14.5.6" type="github" pages="2">
  <diagram id="pyJXW4tcS7gTMC_63tDe" name="Page-1">
    <mxGraphModel dx="986" dy="561" grid="1" gridSize="10" guides="1" tooltips="1" connect="1" arrows="1" fold="1" page="1" pageScale="1" pageWidth="1169" pageHeight="827" math="0" shadow="0">
      <root>
        <mxCell id="0" />
        <mxCell id="1" parent="0" />
        <mxCell id="5_0kyOE1kfB-TVrdnJSh-1" value="NULL" style="rounded=0;whiteSpace=wrap;html=1;fillColor=#fff2cc;strokeColor=#d6b656;" vertex="1" parent="1">
          <mxGeometry x="50" y="150" width="120" height="60" as="geometry" />
        </mxCell>
        <mxCell id="5_0kyOE1kfB-TVrdnJSh-2" value="QUEUES" style="rounded=0;whiteSpace=wrap;html=1;fillColor=#e1d5e7;strokeColor=#9673a6;" vertex="1" parent="1">
          <mxGeometry x="180" y="150" width="120" height="60" as="geometry" />
        </mxCell>
        <mxCell id="5_0kyOE1kfB-TVrdnJSh-3" value="ARE" style="rounded=0;whiteSpace=wrap;html=1;fillColor=#dae8fc;strokeColor=#6c8ebf;" vertex="1" parent="1">
          <mxGeometry x="310" y="150" width="120" height="60" as="geometry" />
        </mxCell>
        <mxCell id="votL6lP1V1cWiDKgVhvV-1" value="GREAT!!!" style="rounded=0;whiteSpace=wrap;html=1;fillColor=#e1d5e7;strokeColor=#9673a6;" vertex="1" parent="1">
          <mxGeometry x="440" y="150" width="120" height="60" as="geometry" />
        </mxCell>
        <mxCell id="votL6lP1V1cWiDKgVhvV-2" value="NULL" style="rounded=0;whiteSpace=wrap;html=1;fillColor=#fff2cc;strokeColor=#d6b656;" vertex="1" parent="1">
          <mxGeometry x="570" y="150" width="120" height="60" as="geometry" />
        </mxCell>
        <mxCell id="votL6lP1V1cWiDKgVhvV-21" style="edgeStyle=orthogonalEdgeStyle;rounded=0;orthogonalLoop=1;jettySize=auto;html=1;" edge="1" parent="1" source="votL6lP1V1cWiDKgVhvV-7" target="votL6lP1V1cWiDKgVhvV-22">
          <mxGeometry relative="1" as="geometry">
            <mxPoint x="860" y="180" as="targetPoint" />
          </mxGeometry>
        </mxCell>
        <mxCell id="votL6lP1V1cWiDKgVhvV-7" value="NULL" style="rounded=0;whiteSpace=wrap;html=1;fillColor=#fff2cc;strokeColor=#d6b656;" vertex="1" parent="1">
          <mxGeometry x="700" y="150" width="120" height="60" as="geometry" />
        </mxCell>
        <mxCell id="votL6lP1V1cWiDKgVhvV-8" value="TAIL" style="text;html=1;strokeColor=none;fillColor=none;align=center;verticalAlign=middle;whiteSpace=wrap;rounded=0;" vertex="1" parent="1">
          <mxGeometry x="610" y="110" width="40" height="20" as="geometry" />
        </mxCell>
        <mxCell id="votL6lP1V1cWiDKgVhvV-9" value="HEAD" style="text;html=1;align=center;verticalAlign=middle;resizable=0;points=[];autosize=1;" vertex="1" parent="1">
          <mxGeometry x="205" y="110" width="50" height="20" as="geometry" />
        </mxCell>
        <mxCell id="votL6lP1V1cWiDKgVhvV-12" value="0" style="text;html=1;strokeColor=none;fillColor=none;align=center;verticalAlign=middle;whiteSpace=wrap;rounded=0;" vertex="1" parent="1">
          <mxGeometry x="80" y="230" width="40" height="20" as="geometry" />
        </mxCell>
        <mxCell id="votL6lP1V1cWiDKgVhvV-13" value="1" style="text;html=1;strokeColor=none;fillColor=none;align=center;verticalAlign=middle;whiteSpace=wrap;rounded=0;" vertex="1" parent="1">
          <mxGeometry x="220" y="230" width="40" height="20" as="geometry" />
        </mxCell>
        <mxCell id="votL6lP1V1cWiDKgVhvV-14" value="2" style="text;html=1;strokeColor=none;fillColor=none;align=center;verticalAlign=middle;whiteSpace=wrap;rounded=0;" vertex="1" parent="1">
          <mxGeometry x="350" y="230" width="40" height="20" as="geometry" />
        </mxCell>
        <mxCell id="votL6lP1V1cWiDKgVhvV-15" value="3" style="text;html=1;strokeColor=none;fillColor=none;align=center;verticalAlign=middle;whiteSpace=wrap;rounded=0;" vertex="1" parent="1">
          <mxGeometry x="480" y="230" width="40" height="20" as="geometry" />
        </mxCell>
        <mxCell id="votL6lP1V1cWiDKgVhvV-17" value="4" style="text;html=1;strokeColor=none;fillColor=none;align=center;verticalAlign=middle;whiteSpace=wrap;rounded=0;" vertex="1" parent="1">
          <mxGeometry x="610" y="230" width="40" height="20" as="geometry" />
        </mxCell>
        <mxCell id="votL6lP1V1cWiDKgVhvV-18" value="5" style="text;html=1;strokeColor=none;fillColor=none;align=center;verticalAlign=middle;whiteSpace=wrap;rounded=0;" vertex="1" parent="1">
          <mxGeometry x="740" y="230" width="40" height="20" as="geometry" />
        </mxCell>
        <mxCell id="votL6lP1V1cWiDKgVhvV-20" value="FIGURE 2. ARRAY WITH QUEUE IMPLEMENTATION.&amp;nbsp;" style="text;html=1;strokeColor=none;fillColor=none;align=center;verticalAlign=middle;whiteSpace=wrap;rounded=0;" vertex="1" parent="1">
          <mxGeometry x="260" y="310" width="580" height="20" as="geometry" />
        </mxCell>
        <mxCell id="votL6lP1V1cWiDKgVhvV-22" value="NEW" style="rounded=0;whiteSpace=wrap;html=1;fillColor=#d5e8d4;strokeColor=#82b366;" vertex="1" parent="1">
          <mxGeometry x="880" y="150" width="120" height="60" as="geometry" />
        </mxCell>
      </root>
    </mxGraphModel>
  </diagram>
  <diagram id="JLustuNtWkpqmjkdF9Sa" name="Page-2">
    <mxGraphModel dx="526" dy="528" grid="1" gridSize="10" guides="1" tooltips="1" connect="1" arrows="1" fold="1" page="1" pageScale="1" pageWidth="1169" pageHeight="827" math="0" shadow="0">
      <root>
        <mxCell id="Y5cn0AreitsMTpiUHnIj-0" />
        <mxCell id="Y5cn0AreitsMTpiUHnIj-1" parent="Y5cn0AreitsMTpiUHnIj-0" />
      </root>
    </mxGraphModel>
  </diagram>
</mxfile>
